<svg xmlns="http://www.w3.org/2000/svg" version="1.1" xmlns:xlink="http://www.w3.org/1999/xlink" xmlns:svgjs="http://svgjs.com/svgjs" width="1920" height="500" preserveAspectRatio="none" viewBox="0 0 1920 500"><g mask="url(&quot;#SvgjsMask1121&quot;)" fill="none"><rect width="1920" height="500" x="0" y="0" fill="rgba(10, 19, 27, 1)"></rect><path d="M24 500L524 0L635 0L135 500z" fill="url(#SvgjsLinearGradient1122)"></path><path d="M359.8 500L859.8 0L1084.8 0L584.8 500z" fill="url(#SvgjsLinearGradient1122)"></path><path d="M672.6 500L1172.6 0L1237.1 0L737.1 500z" fill="url(#SvgjsLinearGradient1122)"></path><path d="M960.4000000000001 500L1460.4 0L1712.4 0L1212.4 500z" fill="url(#SvgjsLinearGradient1122)"></path><path d="M1885 500L1385 0L1275.5 0L1775.5 500z" fill="url(#SvgjsLinearGradient1123)"></path><path d="M1578.2 500L1078.2 0L790.2 0L1290.2 500z" fill="url(#SvgjsLinearGradient1123)"></path><path d="M1276.4 500L776.4000000000001 0L410.4000000000001 0L910.4000000000001 500z" fill="url(#SvgjsLinearGradient1123)"></path><path d="M943.5999999999999 500L443.5999999999999 0L370.0999999999999 0L870.0999999999999 500z" fill="url(#SvgjsLinearGradient1123)"></path><path d="M1646.9592436210735 500L1920 226.95924362107348L1920 500z" fill="url(#SvgjsLinearGradient1122)"></path><path d="M0 500L273.0407563789265 500L 0 226.95924362107348z" fill="url(#SvgjsLinearGradient1123)"></path></g><defs><mask id="SvgjsMask1121"><rect width="1920" height="500" fill="#ffffff"></rect></mask><linearGradient x1="0%" y1="100%" x2="100%" y2="0%" id="SvgjsLinearGradient1122"><stop stop-color="rgba(33, 33, 33, 1)" offset="0"></stop><stop stop-opacity="0" stop-color="rgba(33, 33, 33, 1)" offset="0.66"></stop></linearGradient><linearGradient x1="100%" y1="100%" x2="0%" y2="0%" id="SvgjsLinearGradient1123"><stop stop-color="rgba(33, 33, 33, 1)" offset="0"></stop><stop stop-opacity="0" stop-color="rgba(33, 33, 33, 1)" offset="0.66"></stop></linearGradient></defs></svg>