<svg xmlns="http://www.w3.org/2000/svg" version="1.1" xmlns:xlink="http://www.w3.org/1999/xlink" xmlns:svgjs="http://svgjs.com/svgjs" width="1500" height="700" preserveAspectRatio="none" viewBox="0 0 1500 700"><g mask="url(&quot;#SvgjsMask1226&quot;)" fill="none"><rect width="1500" height="700" x="0" y="0" fill="rgba(243, 234, 234, 1)"></rect><path d="M 0,152 C 43,139 129,81.2 215,87 C 301,92.8 344,183 430,181 C 516,179 559,75.6 645,77 C 731,78.4 774,189.4 860,188 C 946,186.6 989,77.4 1075,70 C 1161,62.6 1205,154.6 1290,151 C 1375,147.4 1458,71.8 1500,52L1500 700L0 700z" fill="rgba(241, 240, 240, 1)"></path><path d="M 0,444 C 60,414.4 180,299.4 300,296 C 420,292.6 480,439.4 600,427 C 720,414.6 780,242.4 900,234 C 1020,225.6 1080,367.4 1200,385 C 1320,402.6 1440,334.6 1500,322L1500 700L0 700z" fill="rgba(237, 243, 246, 1)"></path><path d="M 0,661 C 100,642.4 300,580.8 500,568 C 700,555.2 800,611.8 1000,597 C 1200,582.2 1400,514.6 1500,494L1500 700L0 700z" fill="rgba(233, 216, 216, 1)"></path></g><defs><mask id="SvgjsMask1226"><rect width="1500" height="700" fill="#ffffff"></rect></mask></defs></svg>