<svg xmlns="http://www.w3.org/2000/svg" version="1.1" xmlns:xlink="http://www.w3.org/1999/xlink" xmlns:svgjs="http://svgjs.com/svgjs" width="1920" height="600" preserveAspectRatio="none" viewBox="0 0 1920 600"><g mask="url(&quot;#SvgjsMask1029&quot;)" fill="none"><rect width="1920" height="600" x="0" y="0" fill="rgba(255, 253, 253, 1)"></rect><path d="M 0,272 C 76.8,225.4 230.4,51.8 384,39 C 537.6,26.2 614.4,197.8 768,208 C 921.6,218.2 998.4,98.2 1152,90 C 1305.6,81.8 1382.4,165.6 1536,167 C 1689.6,168.4 1843.2,111 1920,97L1920 600L0 600z" fill="rgba(202, 213, 222, 1)"></path><path d="M 0,515 C 128,480.6 384,331.6 640,343 C 896,354.4 1024,561.4 1280,572 C 1536,582.6 1792,431.2 1920,396L1920 600L0 600z" fill="rgba(171, 128, 86, 1)"></path></g><defs><mask id="SvgjsMask1029"><rect width="1920" height="600" fill="#ffffff"></rect></mask></defs></svg>