<svg id="Layer_1" height="512" viewBox="0 0 256 256" width="512" xmlns="http://www.w3.org/2000/svg"><g><g><g><g><g><path d="m196.77 36.925h27.495v62.024h-27.495z" fill="#a4c9ff" transform="matrix(-1 0 0 -1 421.036 135.873)"/></g></g><g><g><path d="m224.266 100.949h-27.495c-1.104 0-2-.896-2-2v-62.024c0-1.104.896-2 2-2h27.495c1.104 0 2 .896 2 2v62.024c0 1.104-.896 2-2 2zm-25.495-4h23.495v-58.024h-23.495z" fill="#3762cc"/></g></g><g><g><path d="m193.927 42.07h33.31c.449 0 .812-.364.812-.812v-8.666c0-.449-.364-.812-.812-.812h-33.31c-.449 0-.812.364-.812.812v8.666c-.001.448.363.812.812.812z" fill="#4671c6"/></g></g><g><g><path d="m227.237 44.07h-33.31c-1.551 0-2.813-1.262-2.813-2.813v-8.666c0-1.551 1.262-2.813 2.813-2.813h33.31c1.551 0 2.813 1.262 2.813 2.813v8.666c-.001 1.552-1.262 2.813-2.813 2.813zm-32.123-4h30.935v-6.291h-30.935z" fill="#3762cc"/></g></g><g><g><g><path d="m169.136 22.786 62.039 61.433v88.409c0 2.233-1.81 4.043-4.043 4.043h-122.975c-2.233 0-4.043-1.81-4.043-4.043v-88.409l61.415-61.415c2.098-2.098 5.498-2.106 7.607-.018z" fill="#f9cfcf"/></g></g><g><g><path d="m227.132 178.672h-122.975c-3.332 0-6.043-2.711-6.043-6.043v-88.41c0-.53.211-1.039.586-1.414l61.415-61.415c2.868-2.868 7.546-2.88 10.429-.025l62.039 61.433c.379.375.593.887.593 1.421v88.41c-.001 3.332-2.712 6.043-6.044 6.043zm-125.018-93.624v87.581c0 1.126.917 2.043 2.043 2.043h122.975c1.126 0 2.043-.917 2.043-2.043v-87.576l-61.446-60.846c-1.323-1.309-3.469-1.304-4.786.012z" fill="#3762cc"/></g></g><g><g><g><path d="m83.974 110.358c1.38 0 2.76-.526 3.813-1.579l77.858-77.858 77.858 77.858c2.105 2.106 5.52 2.106 7.626 0s2.106-5.52 0-7.626l-77.859-77.858c-2.037-2.037-4.745-3.159-7.626-3.159-2.88 0-5.589 1.122-7.626 3.159l-77.858 77.858c-2.106 2.106-2.106 5.52 0 7.626 1.053 1.053 2.434 1.579 3.814 1.579z" fill="#f9a7a7"/></g></g></g><g><g><g><path d="m83.974 112.358c-1.975 0-3.832-.769-5.228-2.166-1.396-1.396-2.165-3.252-2.165-5.227s.769-3.831 2.166-5.227l77.858-77.857c2.414-2.415 5.625-3.745 9.04-3.745s6.626 1.33 9.041 3.745l77.858 77.858c1.396 1.396 2.166 3.252 2.166 5.227s-.769 3.831-2.166 5.227c-1.396 1.396-3.252 2.166-5.227 2.166s-3.831-.769-5.228-2.166l-76.444-76.443-76.444 76.443c-1.396 1.396-3.252 2.165-5.227 2.165zm81.67-90.222c-2.346 0-4.552.914-6.211 2.573l-77.858 77.858c-.641.641-.994 1.493-.994 2.398 0 .906.353 1.758.994 2.398 1.281 1.282 3.517 1.282 4.797 0l77.858-77.858c.78-.781 2.048-.781 2.828 0l77.858 77.858c1.281 1.281 3.517 1.281 4.797 0 .641-.641.994-1.493.994-2.399s-.353-1.758-.994-2.398l-77.858-77.858c-1.658-1.658-3.864-2.572-6.211-2.572z" fill="#3762cc"/></g></g></g><g><g><path d="m175.94 176.672h40.153v-66.945c0-2.195-1.78-3.975-3.975-3.975h-32.204c-2.195 0-3.975 1.78-3.975 3.975v66.945z" fill="#e0ebfc"/></g></g><g><g><path d="m119.255 149.322h43.245c2.184 0 3.954-1.77 3.954-3.954v-35.662c0-2.184-1.77-3.954-3.954-3.954h-43.245c-2.184 0-3.954 1.77-3.954 3.954v35.662c0 2.184 1.771 3.954 3.954 3.954z" fill="#a4c9ff"/></g></g><g><g><path d="m216.093 178.672h-40.153c-1.104 0-2-.896-2-2v-66.945c0-3.294 2.68-5.975 5.975-5.975h32.204c3.294 0 5.975 2.68 5.975 5.975v66.945c-.001 1.104-.896 2-2.001 2zm-38.153-4h36.153v-64.945c0-1.089-.886-1.975-1.975-1.975h-32.204c-1.089 0-1.975.886-1.975 1.975v64.945z" fill="#3762cc"/></g></g><g><g><path d="m162.5 151.322h-43.245c-3.283 0-5.954-2.671-5.954-5.954v-35.663c0-3.283 2.671-5.954 5.954-5.954h43.245c3.283 0 5.954 2.671 5.954 5.954v35.663c0 3.283-2.671 5.954-5.954 5.954zm-43.245-43.57c-1.078 0-1.954.876-1.954 1.954v35.663c0 1.077.876 1.954 1.954 1.954h43.245c1.077 0 1.954-.876 1.954-1.954v-35.663c0-1.077-.876-1.954-1.954-1.954z" fill="#3762cc"/></g></g><g><g><path d="m208.212 147.655c-1.104 0-2-.896-2-2v-6.326c0-1.104.896-2 2-2s2 .896 2 2v6.326c0 1.105-.895 2-2 2z" fill="#3762cc"/></g></g><g><g><path d="m140.877 151.322c-1.104 0-2-.896-2-2v-43.57c0-1.104.896-2 2-2s2 .896 2 2v43.57c0 1.105-.895 2-2 2z" fill="#3762cc"/></g></g><g><g><path d="m166.454 129.538h-51.152c-1.104 0-2-.896-2-2s.896-2 2-2h51.152c1.104 0 2 .896 2 2s-.896 2-2 2z" fill="#3762cc"/></g></g></g></g><g><g><g><path d="m26.736 84.025h22.664v51.125h-22.664z" fill="#a4c9ff"/></g></g><g><g><path d="m49.4 137.15h-22.664c-1.104 0-2-.896-2-2v-51.125c0-1.104.896-2 2-2h22.664c1.104 0 2 .896 2 2v51.125c0 1.104-.896 2-2 2zm-20.664-4h18.664v-47.125h-18.664z" fill="#3762cc"/></g></g><g><g><path d="m51.744 88.267h-27.457c-.37 0-.67-.3-.67-.67v-7.143c0-.37.3-.67.67-.67h27.457c.37 0 .67.3.67.67v7.143c-.001.37-.3.67-.67.67z" fill="#4671c6"/></g></g><g><g><path d="m51.744 90.267h-27.457c-1.472 0-2.669-1.198-2.669-2.67v-7.143c0-1.472 1.197-2.669 2.669-2.669h27.457c1.472 0 2.67 1.197 2.67 2.669v7.143c0 1.472-1.198 2.67-2.67 2.67zm-26.126-4h24.796v-4.482h-24.796z" fill="#3762cc"/></g></g><g><g><g><path d="m72.178 72.371-51.137 50.638v72.873c0 1.84 1.492 3.333 3.333 3.333h101.365c1.841 0 3.333-1.492 3.333-3.333v-72.873l-50.623-50.622c-1.73-1.73-4.533-1.737-6.271-.016z" fill="#f9cfcf"/></g></g><g><g><path d="m125.738 201.215h-101.364c-2.94 0-5.333-2.392-5.333-5.333v-72.873c0-.534.213-1.045.593-1.421l51.137-50.638c2.514-2.488 6.592-2.478 9.092.023l50.622 50.623c.375.375.586.884.586 1.414v72.873c0 2.94-2.392 5.332-5.333 5.332zm-102.696-77.372v72.039c0 .735.598 1.333 1.333 1.333h101.364c.735 0 1.333-.598 1.333-1.333v-72.044l-50.037-50.037c-.949-.948-2.496-.953-3.449-.008z" fill="#3762cc"/></g></g><g><g><g><path d="m142.375 144.555c-1.138 0-2.275-.434-3.143-1.302l-64.176-64.176-64.176 64.176c-1.735 1.736-4.55 1.736-6.286 0s-1.736-4.55 0-6.286l64.176-64.176c1.679-1.679 3.911-2.604 6.286-2.604 2.374 0 4.607.925 6.286 2.604l64.176 64.176c1.736 1.736 1.736 4.55 0 6.286-.868.868-2.005 1.302-3.143 1.302z" fill="#4671c6"/></g></g></g><g><g><g><path d="m7.737 146.555c-1.722 0-3.34-.67-4.558-1.888-1.217-1.217-1.887-2.835-1.887-4.557s.67-3.34 1.888-4.557l64.176-64.176c2.056-2.057 4.791-3.19 7.7-3.19s5.644 1.133 7.7 3.19l64.176 64.176c1.217 1.217 1.888 2.835 1.888 4.557s-.67 3.34-1.888 4.557-2.835 1.888-4.557 1.888c-1.721 0-3.339-.67-4.557-1.888l-62.762-62.762-62.762 62.762c-1.217 1.217-2.835 1.888-4.557 1.888zm67.319-74.368c-1.84 0-3.57.717-4.871 2.018l-64.177 64.176c-.462.462-.716 1.076-.716 1.729s.254 1.267.716 1.729c.924.923 2.534.924 3.457 0l64.177-64.176c.78-.781 2.048-.781 2.828 0l64.176 64.176c.924.923 2.534.922 3.458 0 .461-.462.716-1.076.716-1.729s-.254-1.267-.716-1.728l-64.176-64.177c-1.302-1.301-3.032-2.018-4.872-2.018z" fill="#3762cc"/></g></g></g><g><g><path d="m66.57 199.215h-33.098v-55.181c0-1.809 1.467-3.276 3.276-3.276h26.545c1.809 0 3.276 1.467 3.276 3.276v55.181z" fill="#e0ebfc"/></g></g><g><g><path d="m113.294 176.672h-35.646c-1.8 0-3.259-1.459-3.259-3.259v-29.396c0-1.8 1.459-3.259 3.259-3.259h35.645c1.8 0 3.259 1.459 3.259 3.259v29.396c.001 1.8-1.459 3.259-3.258 3.259z" fill="#a4c9ff"/></g></g><g><g><path d="m66.57 201.215h-33.097c-1.104 0-2-.896-2-2v-55.181c0-2.909 2.367-5.276 5.276-5.276h26.545c2.909 0 5.276 2.367 5.276 5.276v55.181c0 1.104-.896 2-2 2zm-31.097-4h29.097v-53.181c0-.704-.573-1.276-1.276-1.276h-26.545c-.704 0-1.276.572-1.276 1.276z" fill="#3762cc"/></g></g><g><g><path d="m113.293 178.672h-35.645c-2.9 0-5.259-2.359-5.259-5.259v-29.396c0-2.9 2.359-5.259 5.259-5.259h35.646c2.9 0 5.259 2.359 5.259 5.259v29.396c0 2.9-2.36 5.259-5.26 5.259zm-35.645-35.914c-.694 0-1.259.564-1.259 1.259v29.396c0 .694.564 1.259 1.259 1.259h35.646c.694 0 1.259-.565 1.259-1.259v-29.396c0-.694-.565-1.259-1.259-1.259z" fill="#3762cc"/></g></g><g><g><path d="m39.969 175.649c-1.104 0-2-.896-2-2v-5.214c0-1.104.896-2 2-2s2 .896 2 2v5.214c0 1.104-.896 2-2 2z" fill="#3762cc"/></g></g><g><g><path d="m95.471 178.672c-1.104 0-2-.896-2-2v-35.914c0-1.104.896-2 2-2s2 .896 2 2v35.914c0 1.104-.896 2-2 2z" fill="#3762cc"/></g></g><g><g><path d="m116.553 160.715h-42.164c-1.104 0-2-.896-2-2s.896-2 2-2h42.164c1.104 0 2 .896 2 2s-.896 2-2 2z" fill="#3762cc"/></g></g></g></g></g><g><g><path d="m96.702 22.381c-.412-1.157-2.049-1.157-2.461 0-2.735 7.676-8.52 14.045-16.146 17.441-1.049.467-1.047 1.93.002 2.397 7.419 3.308 13.327 9.534 16.144 17.439.412 1.157 2.049 1.157 2.461 0 2.735-7.676 8.52-14.045 16.145-17.44 1.05-.467 1.047-1.93-.002-2.398-7.365-3.286-13.307-9.477-16.143-17.439z" fill="#a4c9ff"/></g></g><g><g><path d="m151.69 193.353c-.412-1.157-2.049-1.157-2.461 0-2.735 7.676-8.52 14.045-16.146 17.441-1.049.467-1.047 1.93.002 2.397 7.419 3.308 13.327 9.534 16.144 17.439.412 1.157 2.049 1.157 2.461 0 2.735-7.676 8.52-14.045 16.145-17.44 1.05-.467 1.047-1.93-.002-2.398-7.364-3.286-13.306-9.476-16.143-17.439z" fill="#a4c9ff"/></g></g><g><g><g><path d="m217.373 173.884h-27.248l1.989 56.89c.099 2.839 2.43 5.09 5.271 5.09h19.988 19.989c2.841 0 5.171-2.25 5.271-5.09l1.989-56.89z" fill="#4671c6"/></g></g><g><g><path d="m237.362 237.864h-39.977c-3.939 0-7.132-3.083-7.27-7.02l-1.989-56.89c-.019-.542.183-1.069.56-1.459.376-.391.896-.611 1.438-.611h54.496c.542 0 1.062.22 1.438.611.377.39.579.917.56 1.459l-1.988 56.89c-.137 3.936-3.33 7.02-7.268 7.02zm-45.166-61.98 1.917 54.82c.062 1.772 1.499 3.16 3.272 3.16h39.977c1.772 0 3.209-1.388 3.272-3.16l1.916-54.819h-50.354z" fill="#3762cc"/></g></g><g><g><path d="m245.64 179.334h-56.957c-1.748 0-3.164-1.417-3.164-3.164v-4.571c0-1.748 1.417-3.164 3.164-3.164h56.957c1.748 0 3.164 1.417 3.164 3.164v4.571c.001 1.747-1.416 3.164-3.164 3.164z" fill="#4671c6"/></g></g><g><g><path d="m245.641 181.334h-56.958c-2.848 0-5.164-2.317-5.164-5.165v-4.571c0-2.848 2.316-5.164 5.164-5.164h56.958c2.848 0 5.164 2.316 5.164 5.164v4.571c0 2.848-2.317 5.165-5.164 5.165zm-56.958-10.899c-.642 0-1.164.522-1.164 1.164v4.571c0 .642.522 1.165 1.164 1.165h56.958c.642 0 1.164-.522 1.164-1.165v-4.571c0-.642-.522-1.164-1.164-1.164z" fill="#3762cc"/></g></g><g><g><path d="m202.163 212.549h-15.202c-1.104 0-2-.896-2-2s.896-2 2-2h15.202c.515 0 1.204-.733 1.468-1.959l7.129-33.127c.232-1.08 1.297-1.769 2.376-1.534 1.08.232 1.767 1.296 1.534 2.376l-7.129 33.127c-.658 3.061-2.82 5.117-5.378 5.117z" fill="#3762cc"/></g></g><g><g><path d="m249.543 204.874h-25.165c-1.748 0-3.164-1.417-3.164-3.164v-33.275h31.493v33.275c.001 1.747-1.416 3.164-3.164 3.164z" fill="#e0ebfc"/></g></g><g><g><path d="m249.543 206.874h-25.165c-2.848 0-5.164-2.317-5.164-5.165v-33.275c0-1.104.896-2 2-2h31.494c1.104 0 2 .896 2 2v33.275c0 2.848-2.317 5.165-5.165 5.165zm-26.329-36.439v31.275c0 .642.522 1.165 1.164 1.165h25.165c.642 0 1.165-.522 1.165-1.165v-31.275z" fill="#3762cc"/></g></g></g></g></svg>